<mxfile host="app.diagrams.net" modified="2022-08-12T13:09:37.734Z" agent="5.0 (Macintosh; Intel Mac OS X 10_15_7) AppleWebKit/537.36 (KHTML, like Gecko) Chrome/104.0.0.0 Safari/537.36" etag="HggpViYg6OJ5GMAeuTMy" version="20.2.3" type="github">
  <diagram id="FA5cxvyrHI9Ft0wWK1tP" name="第 1 页">
    <mxGraphModel dx="1168" dy="798" grid="1" gridSize="10" guides="1" tooltips="1" connect="1" arrows="1" fold="1" page="1" pageScale="1" pageWidth="1169" pageHeight="1654" math="0" shadow="0">
      <root>
        <mxCell id="0" />
        <mxCell id="1" parent="0" />
        <mxCell id="N2fHJ8bguDGNISqejyrX-1" value="" style="endArrow=none;html=1;rounded=0;strokeWidth=3;dashed=1;" parent="1" edge="1">
          <mxGeometry width="50" height="50" relative="1" as="geometry">
            <mxPoint x="150" y="200" as="sourcePoint" />
            <mxPoint x="990" y="200" as="targetPoint" />
          </mxGeometry>
        </mxCell>
        <mxCell id="N2fHJ8bguDGNISqejyrX-2" value="" style="endArrow=none;html=1;rounded=0;dashed=1;strokeWidth=3;" parent="1" edge="1">
          <mxGeometry width="50" height="50" relative="1" as="geometry">
            <mxPoint x="217" y="80" as="sourcePoint" />
            <mxPoint x="217" y="780" as="targetPoint" />
          </mxGeometry>
        </mxCell>
        <mxCell id="N2fHJ8bguDGNISqejyrX-3" value="" style="endArrow=none;html=1;rounded=0;strokeWidth=3;dashed=1;" parent="1" edge="1">
          <mxGeometry width="50" height="50" relative="1" as="geometry">
            <mxPoint x="148" y="680" as="sourcePoint" />
            <mxPoint x="988" y="680" as="targetPoint" />
          </mxGeometry>
        </mxCell>
        <mxCell id="N2fHJ8bguDGNISqejyrX-4" value="&lt;b&gt;&lt;font style=&quot;font-size: 22px;&quot;&gt;Main&lt;/font&gt;&lt;/b&gt;" style="text;html=1;align=center;verticalAlign=middle;resizable=0;points=[];autosize=1;strokeColor=none;fillColor=none;" parent="1" vertex="1">
          <mxGeometry x="70" y="180" width="70" height="40" as="geometry" />
        </mxCell>
        <mxCell id="N2fHJ8bguDGNISqejyrX-5" value="&lt;b&gt;Exit&lt;/b&gt;" style="text;html=1;align=center;verticalAlign=middle;resizable=0;points=[];autosize=1;strokeColor=none;fillColor=none;fontSize=22;" parent="1" vertex="1">
          <mxGeometry x="70" y="660" width="60" height="40" as="geometry" />
        </mxCell>
        <mxCell id="N2fHJ8bguDGNISqejyrX-9" value="" style="curved=1;endArrow=classic;html=1;rounded=0;fontSize=22;strokeWidth=3;" parent="1" edge="1">
          <mxGeometry width="50" height="50" relative="1" as="geometry">
            <mxPoint x="220" y="540" as="sourcePoint" />
            <mxPoint x="220" y="280" as="targetPoint" />
            <Array as="points">
              <mxPoint x="320" y="500" />
              <mxPoint x="380" y="360" />
            </Array>
          </mxGeometry>
        </mxCell>
        <mxCell id="N2fHJ8bguDGNISqejyrX-10" value="Label" style="text;html=1;align=center;verticalAlign=middle;resizable=0;points=[];autosize=1;strokeColor=#B20000;fillColor=#e51400;fontSize=22;fontColor=#ffffff;" parent="1" vertex="1">
          <mxGeometry x="128" y="260" width="80" height="40" as="geometry" />
        </mxCell>
        <mxCell id="N2fHJ8bguDGNISqejyrX-11" value="Goto" style="text;html=1;align=center;verticalAlign=middle;resizable=0;points=[];autosize=1;strokeColor=#B20000;fillColor=#e51400;fontSize=22;fontColor=#ffffff;" parent="1" vertex="1">
          <mxGeometry x="131" y="520" width="70" height="40" as="geometry" />
        </mxCell>
        <mxCell id="N2fHJ8bguDGNISqejyrX-13" value="" style="endArrow=none;html=1;rounded=0;dashed=1;strokeWidth=3;" parent="1" edge="1">
          <mxGeometry width="50" height="50" relative="1" as="geometry">
            <mxPoint x="630" y="70" as="sourcePoint" />
            <mxPoint x="630" y="770" as="targetPoint" />
          </mxGeometry>
        </mxCell>
        <mxCell id="N2fHJ8bguDGNISqejyrX-14" value="" style="endArrow=classic;html=1;rounded=0;fontSize=22;strokeWidth=3;" parent="1" edge="1">
          <mxGeometry width="50" height="50" relative="1" as="geometry">
            <mxPoint x="630" y="280" as="sourcePoint" />
            <mxPoint x="770" y="280" as="targetPoint" />
          </mxGeometry>
        </mxCell>
        <mxCell id="N2fHJ8bguDGNISqejyrX-15" value="" style="endArrow=none;html=1;rounded=0;dashed=1;strokeWidth=3;" parent="1" edge="1">
          <mxGeometry width="50" height="50" relative="1" as="geometry">
            <mxPoint x="770" y="280" as="sourcePoint" />
            <mxPoint x="770" y="760" as="targetPoint" />
          </mxGeometry>
        </mxCell>
        <mxCell id="N2fHJ8bguDGNISqejyrX-16" value="" style="endArrow=classic;html=1;rounded=0;fontSize=22;strokeWidth=3;" parent="1" edge="1">
          <mxGeometry width="50" height="50" relative="1" as="geometry">
            <mxPoint x="770" y="460" as="sourcePoint" />
            <mxPoint x="910" y="460" as="targetPoint" />
          </mxGeometry>
        </mxCell>
        <mxCell id="N2fHJ8bguDGNISqejyrX-17" value="" style="endArrow=none;html=1;rounded=0;dashed=1;strokeWidth=3;" parent="1" edge="1">
          <mxGeometry width="50" height="50" relative="1" as="geometry">
            <mxPoint x="910" y="460" as="sourcePoint" />
            <mxPoint x="910" y="760" as="targetPoint" />
          </mxGeometry>
        </mxCell>
        <mxCell id="N2fHJ8bguDGNISqejyrX-18" value="Main" style="text;html=1;align=center;verticalAlign=middle;resizable=0;points=[];autosize=1;strokeColor=#B20000;fillColor=#e51400;fontSize=22;fontColor=#ffffff;" parent="1" vertex="1">
          <mxGeometry x="535" y="230" width="70" height="40" as="geometry" />
        </mxCell>
        <mxCell id="N2fHJ8bguDGNISqejyrX-19" value="Foo" style="text;html=1;align=center;verticalAlign=middle;resizable=0;points=[];autosize=1;strokeColor=#B20000;fillColor=#e51400;fontSize=22;fontColor=#ffffff;" parent="1" vertex="1">
          <mxGeometry x="795" y="260" width="60" height="40" as="geometry" />
        </mxCell>
        <mxCell id="N2fHJ8bguDGNISqejyrX-20" value="Bar" style="text;html=1;align=center;verticalAlign=middle;resizable=0;points=[];autosize=1;strokeColor=#B20000;fillColor=#e51400;fontSize=22;fontColor=#ffffff;" parent="1" vertex="1">
          <mxGeometry x="930" y="440" width="60" height="40" as="geometry" />
        </mxCell>
      </root>
    </mxGraphModel>
  </diagram>
</mxfile>
